<?xml version="1.0" encoding="UTF-8"?>
<!DOCTYPE svg PUBLIC "-//W3C//DTD SVG 1.1//EN" "http://www.w3.org/Graphics/SVG/1.1/DTD/svg11.dtd">
<!-- Creator: CorelDRAW 2020 (64-Bit) -->
<svg xmlns="http://www.w3.org/2000/svg" xml:space="preserve" width="3508px" height="2480px" version="1.1" style="shape-rendering:geometricPrecision; text-rendering:geometricPrecision; image-rendering:optimizeQuality; fill-rule:evenodd; clip-rule:evenodd"
viewBox="0 0 3508 2480.4"
 xmlns:xlink="http://www.w3.org/1999/xlink"
 xmlns:xodm="http://www.corel.com/coreldraw/odm/2003">
 <defs>
  <style type="text/css">
   <![CDATA[
    .fil0 {fill:#357DFF;fill-rule:nonzero}
   ]]>
  </style>
   <clipPath id="id0">
    <path d="M1838.16 2457.49l-522.66 0 0 -1240.05 -246.51 0 0 -386.64 0 -30.66 246.51 0 0 -208.99c0,-53.65 0.7,-121.92 11.16,-191.59 10.81,-68.97 31.38,-140.02 74.62,-196.45l0 0c42.19,-56.43 93.79,-104.5 160.39,-138.64 66.24,-34.14 146.79,-52.95 245.81,-52.95 0.35,0 0.35,0 0.35,0 314.15,0 448.39,44.59 451.88,45.98l24.41 8.36 -71.48 424.27 -32.78 -9.75 -1.04 0 -3.14 -0.7c-2.79,-0.7 -6.97,-2.09 -12.2,-3.48 -10.81,-2.79 -26.15,-6.27 -44.29,-9.76 -36.26,-6.96 -84.37,-14.63 -129,-14.63 -0.35,0 -0.35,0 -0.35,0 0,0 -0.35,0 -0.35,0 -33.13,0 -64.16,4.88 -88.57,13.94 -24.75,9.75 -41.84,22.99 -51.6,40.4 -6.97,11.85 -11.16,26.48 -11.16,45.98l0 248.01 395.75 0 -32.08 417.3 -363.67 0 0 1240.05zm-708.5 -1596.74l0 296.08 246.51 0 0 1240.06 401.33 0 0 -1240.06 368.19 0 22.67 -296.08 -390.86 0 0 -308.62c0,-28.56 6.62,-54.34 19.17,-75.93 12.21,-21.6 29.99,-39.02 50.21,-50.86 41.14,-25.08 91.35,-34.14 142.96,-34.14 50.9,0 102.16,7.67 141.21,15.33 12.2,2.79 23.36,4.88 32.78,7.66l51.6 -305.83c-16.39,-4.18 -40.8,-9.06 -74.27,-14.63 -70.08,-10.45 -179.22,-21.6 -333.33,-21.6 -91.7,0 -161.79,17.42 -218.62,46.68 -56.83,28.56 -101.11,69.67 -139.47,120.52l0 0 -0.35 0c-33.82,44.59 -53,105.89 -62.76,169.99 -9.76,63.39 -10.46,128.88 -10.46,181.83l0 269.6 -246.51 0 0 0z"/>
   </clipPath>
    <clipPath id="id1">
     <rect x="1096.64" y="39.29" width="1156.21" height="2390.23"/>
    </clipPath>
 </defs>
 <g id="Слой_x0020_1">
  <metadata id="CorelCorpID_0Corel-Layer"/>
  <path class="fil0" d="M1099.19 830.48l0 30.32 277.07 0 0 -269.97c-0.02,-52.47 0.69,-118.08 10.51,-181.85 9.76,-63.81 28.91,-125.13 62.78,-169.43l0.08 -0.1 -0.01 0.02c38.36,-50.71 82.66,-91.91 139.53,-120.99 56.92,-29 127.14,-46.26 218.78,-46.32 154.14,0 263.1,11.02 333.08,21.89 34.97,5.42 60.23,10.82 76.51,14.78 8.13,1.96 14.04,3.58 17.78,4.68 1.88,0.56 3.23,0.97 4.05,1.21l0.85 0.28 0.12 0.04 3.92 -11.77 -3.99 11.75 0.07 0.02 3.92 -11.77 -3.99 11.75 9.76 -28.72 -29.92 -5.05 -61.71 365.18 29.91 5.06 8.46 -29.14c-0.63,-0.18 -27.02,-7.83 -65.85,-15.49 -38.88,-7.67 -90.05,-15.44 -141.08,-15.46 -51.53,0.14 -101.95,8.8 -142.81,33.66 -20.33,12.46 -38.13,29.42 -50.49,51.05 -12.39,21.58 -18.97,47.37 -18.93,75.82l0 308.87 390.88 0 -22.71 296.14 -368.17 0 0 1239.71 -401.33 0 0 -1239.71 -246.75 0 0 -326.46 -30.32 0 0 30.32 0 -30.32 -30.36 0 0 387.14 246.75 0 0 1239.71 522.69 0 0 -1239.71 363.7 0 32.02 -417.5 -395.72 0 0 -248.19c0.06,-19.45 4.21,-33.88 10.92,-45.69 10.05,-17.51 27.08,-30.78 51.7,-40.2 24.43,-9.37 55.66,-14 88.93,-13.96 44.84,-0.02 92.89,7.08 129.3,14.3 18.23,3.6 33.56,7.2 44.26,9.89 5.36,1.34 9.54,2.45 12.36,3.22l3.17 0.86 0.95 0.27 32.68 9.49 71.69 -424.24 -24.48 -8.31c-3.48,-1.17 -137.77,-46.07 -451.82,-46.07 -99.21,-0.05 -179.91,18.99 -246.37,52.97 -66.48,33.89 -118.03,82.37 -160.34,138.44l0.06 -0.08c-43.1,56.87 -63.69,127.6 -74.48,196.92 -10.65,69.39 -11.2,138.01 -11.22,191.09l0 209.29 -246.75 0 0 30.36 30.36 0z"/>
  <g style="clip-path:url(#id0)">
   <image x="1060.27" y="3.86" width="1230.12" height="2457.81" xlink:href="facebook_Images\facebook_ImgID1.png"/>
  </g>
  <path class="fil0" d="M1099.17 830.46l0 30.34 277.09 0 0 -269.97c-0.02,-52.47 0.69,-118.08 10.51,-181.85 9.76,-63.81 28.91,-125.13 62.78,-169.43l0.08 -0.1 -0.01 0.02c38.36,-50.71 82.64,-91.91 139.53,-120.99 56.92,-29 127.14,-46.28 218.78,-46.32 154.14,0 263.1,11.02 333.08,21.89 34.97,5.42 60.23,10.82 76.51,14.78 8.13,1.96 14.04,3.6 17.78,4.69 1.88,0.55 3.23,0.96 4.05,1.2l0.85 0.28 0.12 0.04 3.92 -11.77 -4 11.75 0.08 0.02 3.92 -11.77 -4 11.75 9.77 -28.72 -29.92 -5.05 -61.71 365.18 29.91 5.06 8.46 -29.14c-0.63,-0.18 -27.02,-7.83 -65.85,-15.49 -38.88,-7.67 -90.05,-15.44 -141.08,-15.46 -51.53,0.14 -101.94,8.8 -142.81,33.66 -20.33,12.46 -38.13,29.42 -50.49,51.05 -12.39,21.58 -18.97,47.39 -18.93,75.82l0 308.87 390.88 0 -22.71 296.14 -368.17 0 0 1239.71 -401.33 0 0 -1239.71 -246.75 0 0 -326.48 -30.34 0 0 30.34 0 -30.34 -30.34 0 0 387.16 246.75 0 0 1239.71 522.69 0 0 -1239.71 363.68 0 32.04 -417.5 -395.72 0 0 -248.19c0.06,-19.45 4.21,-33.88 10.92,-45.69 10.05,-17.51 27.08,-30.78 51.7,-40.2 24.43,-9.37 55.66,-14 88.93,-13.96 44.84,-0.02 92.89,7.08 129.3,14.3 18.23,3.6 33.56,7.2 44.26,9.89 5.36,1.34 9.54,2.45 12.36,3.22l3.17 0.86 0.93 0.27 32.7 9.49 71.69 -424.24 -24.48 -8.31c-3.48,-1.17 -137.77,-46.07 -451.82,-46.07 -99.21,-0.05 -179.91,18.99 -246.37,52.97 -66.48,33.89 -118.03,82.37 -160.34,138.44l0.06 -0.08c-43.1,56.87 -63.69,127.6 -74.48,196.92 -10.65,69.39 -11.2,138.01 -11.22,191.09l0 209.29 -246.75 0 0 30.34 30.34 0z"/>
  <g id="_2921818320544">
   <g style="clip-path:url(#id1)">
    <image x="1096.64" y="39.29" width="1156.22" height="2390.22" xlink:href="facebook_Images\facebook_ImgID2.png"/>
   </g>
  </g>
 </g>
</svg>
