<?xml version="1.0" encoding="UTF-8"?>
<!DOCTYPE svg PUBLIC "-//W3C//DTD SVG 1.1//EN" "http://www.w3.org/Graphics/SVG/1.1/DTD/svg11.dtd">
<!-- Creator: CorelDRAW 2020 (64-Bit) -->
<svg xmlns="http://www.w3.org/2000/svg" xml:space="preserve" width="3508px" height="2480px" version="1.1" style="shape-rendering:geometricPrecision; text-rendering:geometricPrecision; image-rendering:optimizeQuality; fill-rule:evenodd; clip-rule:evenodd"
viewBox="0 0 3508 2480.4"
 xmlns:xlink="http://www.w3.org/1999/xlink"
 xmlns:xodm="http://www.corel.com/coreldraw/odm/2003">
 <defs>
  <style type="text/css">
   <![CDATA[
    .fil0 {fill:url(#id0)}
   ]]>
  </style>
  <linearGradient id="id0" gradientUnits="userSpaceOnUse" x1="2835.53" y1="259.42" x2="693.27" y2="2345.33">
   <stop offset="0" style="stop-opacity:1; stop-color:#4845A2"/>
   <stop offset="0.141176" style="stop-opacity:1; stop-color:#7845A2"/>
   <stop offset="0.301961" style="stop-opacity:1; stop-color:#A844A1"/>
   <stop offset="0.494118" style="stop-opacity:1; stop-color:#BF3470"/>
   <stop offset="0.6" style="stop-opacity:1; stop-color:#D7243E"/>
   <stop offset="0.878431" style="stop-opacity:1; stop-color:#F9A326"/>
   <stop offset="1" style="stop-opacity:1; stop-color:#F9DD26"/>
  </linearGradient>
 </defs>
 <g id="Слой_x0020_1">
  <metadata id="CorelCorpID_0Corel-Layer"/>
  <path class="fil0" d="M1320.09 284.68c-238.13,0 -431.85,193.68 -431.85,431.73l0 1038.36c0,238.03 193.72,431.69 431.85,431.69l1038.15 0c238.11,0 431.84,-193.66 431.84,-431.69l0 -1038.36c0,-238.05 -193.73,-431.73 -431.84,-431.73l-1038.15 0zm1038.15 1958.17l-1038.15 0c-269.23,0 -488.24,-218.97 -488.24,-488.08l0 -1038.36c0,-269.13 219.01,-488.09 488.24,-488.09l1038.15 0c269.2,0 488.18,218.96 488.18,488.09l0 1038.36c0,269.11 -218.98,488.08 -488.18,488.08zm-1026.47 -2185.21c-366.45,0 -664.62,298.15 -664.62,664.65l0 1014.68c0,366.46 298.17,664.59 664.62,664.59l1014.77 0c366.43,0 664.53,-298.13 664.53,-664.59l0 -1014.68c0,-366.5 -298.1,-664.65 -664.53,-664.65l-1014.77 0zm1014.77 2400.31l-1014.77 0c-397.55,0 -721.01,-323.44 -721.01,-720.98l0 -1014.68c0,-397.59 323.46,-721.03 721.01,-721.03l1014.77 0c397.5,0 720.94,323.44 720.94,721.03l0 1014.68c0,397.54 -323.44,720.98 -720.94,720.98zm-507.4 -1597.86c-207.04,0 -375.45,168.43 -375.45,375.48 0,207.09 168.41,375.57 375.45,375.57 207.09,0 375.61,-168.48 375.61,-375.57 0,-207.05 -168.52,-375.48 -375.61,-375.48zm0 807.42c-238.13,0 -431.84,-193.76 -431.84,-431.94 0,-238.13 193.71,-431.86 431.84,-431.86 238.2,0 431.97,193.73 431.97,431.86 0,238.18 -193.77,431.94 -431.97,431.94zm0 -1026.42c-327.88,0 -594.64,266.68 -594.64,594.48 0,327.89 266.76,594.65 594.64,594.65 327.91,0 594.7,-266.76 594.7,-594.65 0,-327.8 -266.79,-594.48 -594.7,-594.48zm0 1245.51c-358.96,0 -651.01,-292.06 -651.01,-651.03 0,-358.88 292.05,-650.86 651.01,-650.86 359,0 651.02,291.98 651.02,650.86 0,358.97 -292.02,651.03 -651.02,651.03zm643.69 -1414.36c-64.56,0 -117.04,52.42 -117.04,116.85 0,64.44 52.48,116.88 117.04,116.88 64.36,0 116.71,-52.44 116.71,-116.88 0,-64.43 -52.35,-116.85 -116.71,-116.85zm0 290.11c-95.64,0 -173.44,-77.73 -173.44,-173.26 0,-95.52 77.8,-173.23 173.44,-173.23 95.46,0 173.09,77.71 173.09,173.23 0,95.53 -77.63,173.26 -173.09,173.26z"/>
 </g>
</svg>
