<?xml version="1.0" encoding="UTF-8"?>
<!DOCTYPE svg PUBLIC "-//W3C//DTD SVG 1.1//EN" "http://www.w3.org/Graphics/SVG/1.1/DTD/svg11.dtd">
<!-- Creator: CorelDRAW 2020 (64-Bit) -->
<svg xmlns="http://www.w3.org/2000/svg" xml:space="preserve" width="3508px" height="2480px" version="1.1" style="shape-rendering:geometricPrecision; text-rendering:geometricPrecision; image-rendering:optimizeQuality; fill-rule:evenodd; clip-rule:evenodd"
viewBox="0 0 3508 2480.4"
 xmlns:xlink="http://www.w3.org/1999/xlink"
 xmlns:xodm="http://www.corel.com/coreldraw/odm/2003">
 <defs>
  <style type="text/css">
   <![CDATA[
    .fil0 {fill:#E5332A;fill-rule:nonzero}
    .fil1 {fill:white;fill-rule:nonzero}
   ]]>
  </style>
   <clipPath id="id0">
    <path d="M2851.17 2389.95l0 0 -2213.43 0c-138.87,-0.65 -238.33,-34.59 -313.39,-84.18 -55.36,-37.2 -97.58,-83.53 -129.48,-133.13 -47.86,-74.39 -72.25,-155.96 -84.45,-218.61 -6.57,-31.32 -9.38,-58.08 -11.26,-76.35 -0.94,-9.13 -0.94,-16.31 -0.94,-20.88l0 -5.87 0 -0.65 0 -0.66 0 -1207.24c0,-139 33.78,-238.84 83.51,-313.24 37.53,-56.12 83.51,-98.53 133.24,-130.51 74.12,-47.64 155.76,-72.44 218.62,-84.18 30.96,-6.53 57.24,-9.14 76,-11.1 9.39,-0.65 16.89,-0.65 21.58,-1.3l4.69 0 1.88 0 0 0 2213.43 0c138.87,0 238.33,33.93 313.39,84.18 56.3,37.2 97.58,83.53 129.49,133.12 47.85,74.4 73.18,155.97 85.38,218.61 5.63,31.33 9.38,58.08 10.32,76.35 0.94,9.14 0.94,16.32 1.88,20.89l0 5.87 0 0.65 0 0.66 0 1207.24 0 0c0,139 -34.72,238.84 -84.45,313.23 -37.53,56.13 -83.51,97.89 -133.23,129.87 -74.13,48.29 -155.76,72.43 -218.63,84.83 -30.96,5.87 -58.17,9.13 -76,10.44 -9.38,0.65 -16.89,1.31 -21.58,1.31l-5.63 0.65 -0.94 0zm-1598.85 -419.6l0 0 1230.1 -723.05 -60.99 -35.89 -1169.11 -686.5 0 1445.44 0 0z"/>
   </clipPath>
   <clipPath id="id1">
    <path d="M1336.1 1823.92l0 -1152.52 981.01 576.09 -981.01 576.43 0 0z"/>
   </clipPath>
   <clipPath id="id2">
    <path d="M636.65 2473.53c-151.83,0 -270.14,-38.47 -358.87,-97.92 -88.74,-59.44 -147.89,-138.48 -186.34,-216.11 -77.89,-155.26 -76.9,-306.33 -77.89,-309.83l0 0 0 -1207.85c0,-152.47 38.45,-270.67 98.59,-359.49 59.16,-88.82 138.03,-148.27 215.92,-187.44 155.77,-76.93 305.63,-76.93 309.58,-76.93l2213.37 0c0,0 0.99,0 0.99,0 151.83,0 270.14,38.47 358.87,97.91 89.72,59.45 148.87,138.48 187.32,216.12 77.89,155.96 76.9,306.33 76.9,309.83l0 0 0 1207.85 0 0 0 0c0,152.47 -38.45,270.67 -97.6,360.19 -59.16,88.82 -139.02,147.57 -216.9,186.74 -155.78,77.63 -305.64,76.93 -309.58,76.93l-2213.37 0c0,0 -0.99,0 -0.99,0zm-539.3 -623.86l0 0 0.99 1.4 0 5.59c0,4.9 0,11.89 0.99,20.99 1.97,18.18 4.93,44.76 10.84,76.23 11.83,62.95 36.48,144.08 84.79,218.21 31.55,49.66 73.94,96.52 129.15,133.58 74.93,49.66 174.51,83.93 313.53,83.93l2213.37 0 0 0 0.99 0 5.91 0c4.93,0 11.83,-0.7 20.71,-1.4 18.73,-1.39 45.35,-4.89 76.9,-10.49 62.11,-12.59 143.94,-37.06 217.88,-84.62 50.29,-32.18 96.62,-74.14 134.09,-130.09 49.29,-74.84 83.8,-174.85 83.8,-313.33l0 0 0 0 0 -1207.85 0 0 0 -1.4 0 -4.9c0,-4.89 -0.99,-11.89 -0.99,-20.98 -1.97,-18.88 -4.92,-45.46 -10.84,-76.93 -12.82,-62.25 -37.46,-144.08 -84.79,-218.21 -32.53,-49.66 -73.94,-95.82 -130.14,-133.59 -74.93,-49.65 -174.51,-83.92 -313.52,-83.92l-2213.37 0 0 0 -0.99 0 -5.92 0c-4.93,0.69 -11.83,0.69 -20.7,1.39 -18.73,1.4 -45.35,4.9 -76.9,11.19 -62.11,11.89 -143.95,36.37 -217.89,84.63 -49.29,31.47 -96.62,74.14 -133.1,130.09 -50.28,74.13 -83.8,174.15 -84.79,312.63l0 1207.85 0 0zm1154.51 121l0 0 0 -1445.65 1169.29 686.1 -21.69 36.37 21.69 -36.37 62.11 36.37 -1231.4 723.18zm83.8 -146.88l0 0 980.99 -576.3 -980.99 -576.3 0 1152.6 0 0z"/>
   </clipPath>
 </defs>
 <g id="Слой_x0020_1">
  <metadata id="CorelCorpID_0Corel-Layer"/>
  <path class="fil0" d="M3475.39 1849.85l0 -1207.74c-0.26,-3.53 0.24,-154.21 -77.24,-309.83 -38.83,-77.71 -97.97,-156.84 -187.13,-216.26 -89.09,-59.5 -207.45,-98.11 -359.92,-98l-2213.52 0c-3.5,0.22 -154.09,-0.28 -309.66,77.2 -77.66,38.81 -156.76,97.95 -216.15,187.07 -59.45,89.05 -98.05,207.38 -97.94,359.82l0 1207.74c0.25,3.51 -0.26,154.12 77.16,309.7 38.78,77.67 97.87,156.77 186.97,216.17 88.99,59.5 207.26,98.11 359.62,97.97l2213.52 0c3.5,-0.22 154.2,0.29 309.91,-77.14 77.71,-38.81 156.89,-97.89 216.31,-187.02 59.53,-89.02 98.18,-207.29 98.07,-359.68l-84.01 0c-0.14,138.53 -34.28,238.43 -83.92,313.05 -37.35,55.95 -83.95,97.96 -133.62,129.91 -74.43,47.87 -155.88,72.52 -218.55,84.73 -31.3,6.1 -57.85,9.15 -76.33,10.67 -9.22,0.75 -16.44,1.15 -21.23,1.31l-5.29 0.17 -2214.86 0c-138.52,-0.11 -238.4,-34.22 -313.02,-83.87 -55.92,-37.29 -97.93,-83.86 -129.85,-133.5 -47.85,-74.34 -72.52,-155.75 -84.7,-218.36 -6.13,-31.27 -9.18,-57.79 -10.7,-76.24 -0.75,-9.24 -1.12,-16.44 -1.28,-21.23l-0.17 -5.29 -0.03 -1.2 0 -1207.89c0.14,-138.61 34.25,-238.57 83.86,-313.22 37.3,-55.98 83.86,-98 133.49,-129.95 74.34,-47.89 155.71,-72.56 218.29,-84.73 31.28,-6.14 57.8,-9.19 76.24,-10.7 9.25,-0.76 16.44,-1.12 21.23,-1.32l5.29 -0.14 1.18 -0.03 2213.69 0c138.63,0.11 238.65,34.25 313.33,83.89 56,37.33 98.03,83.92 129.98,133.57 47.91,74.4 72.58,155.83 84.79,218.46 6.13,31.28 9.18,57.82 10.69,76.28 0.76,9.24 1.13,16.46 1.3,21.22l0.16 5.32 0.03 1.18 0 1207.91 84.01 0 0 0zm-1075.45 -602.44l-21.28 -36.21 -1042.62 612.67 0 -1152.36 1042.65 612.14 21.25 -36.24 -21.28 -36.21 21.28 36.21 21.28 -36.21 -1169.19 -686.42 0 1445.87 1230.85 -723.24 -61.66 -36.21 -21.28 36.21z"/>
  <path class="fil0" d="M3475.39 1849.85l0 -1207.74c-0.26,-3.53 0.24,-154.21 -77.24,-309.83 -38.83,-77.71 -97.97,-156.84 -187.13,-216.26 -89.09,-59.5 -207.45,-98.11 -359.92,-98l-2213.52 0c-3.5,0.22 -154.09,-0.28 -309.66,77.2 -77.66,38.81 -156.76,97.95 -216.15,187.07 -59.45,89.05 -98.05,207.38 -97.94,359.82l0 1207.74c0.25,3.51 -0.26,154.12 77.16,309.7 38.78,77.67 97.87,156.77 186.97,216.17 88.99,59.5 207.26,98.11 359.62,97.97l2213.52 0c3.5,-0.22 154.2,0.29 309.91,-77.14 77.71,-38.81 156.89,-97.89 216.31,-187.02 59.53,-89.02 98.18,-207.29 98.07,-359.68l-84.01 0c-0.14,138.53 -34.28,238.43 -83.92,313.05 -37.35,55.95 -83.95,97.96 -133.62,129.91 -74.43,47.87 -155.88,72.52 -218.55,84.73 -31.3,6.1 -57.85,9.15 -76.33,10.67 -9.22,0.75 -16.44,1.15 -21.23,1.31l-5.29 0.17 -2214.86 0c-138.52,-0.11 -238.4,-34.22 -313.02,-83.87 -55.92,-37.29 -97.93,-83.86 -129.85,-133.5 -47.85,-74.34 -72.52,-155.75 -84.7,-218.36 -6.13,-31.27 -9.18,-57.79 -10.7,-76.24 -0.75,-9.24 -1.12,-16.44 -1.28,-21.23l-0.17 -5.29 -0.03 -1.2 0 -1207.89c0.14,-138.61 34.25,-238.57 83.86,-313.22 37.3,-55.98 83.86,-98 133.49,-129.95 74.34,-47.89 155.71,-72.56 218.29,-84.73 31.28,-6.14 57.8,-9.19 76.24,-10.7 9.25,-0.76 16.44,-1.12 21.23,-1.32l5.29 -0.14 1.18 -0.03 2213.69 0c138.63,0.11 238.65,34.25 313.33,83.89 56,37.33 98.03,83.92 129.98,133.57 47.91,74.4 72.58,155.83 84.79,218.46 6.13,31.28 9.18,57.82 10.69,76.28 0.76,9.24 1.13,16.46 1.3,21.22l0.16 5.32 0.03 1.18 0 1207.91 84.01 0 0 0zm-1075.45 -602.44l-21.28 -36.21 -1042.62 612.67 0 -1152.36 1042.65 612.14 21.25 -36.24 -21.28 -36.21 21.28 36.21 21.28 -36.21 -1169.19 -686.42 0 1445.87 1230.85 -723.24 -61.66 -36.21 -21.28 36.21z"/>
  <g style="clip-path:url(#id0)">
   <image x="88.84" y="93.57" width="3310.3" height="2302.25" xlink:href="youtube_Images\youtube_ImgID1.png"/>
  </g>
  <g style="clip-path:url(#id1)">
   <image x="1326.49" y="664.79" width="997.4" height="1165.41" xlink:href="youtube_Images\youtube_ImgID2.png"/>
  </g>
  <g style="clip-path:url(#id2)">
   <image x="7.64" y="12.36" width="3478.3" height="2467.46" xlink:href="youtube_Images\youtube_ImgID3.png"/>
  </g>
  <path class="fil1" d="M3436.88 1849.85l0 -1207.74c-0.03,-0.31 0,-146.25 -73.17,-292.61 -73.05,-146.4 -220.26,-293.09 -512.61,-292.98l-2213.52 0c-0.31,0.03 -146.16,-0.03 -292.45,73.14 -146.28,73.02 -292.92,220.17 -292.81,512.45l0 1207.74c0.03,0.28 0,146.19 73.11,292.48 73,146.33 220.04,293 512.15,292.86l2213.52 0c0.28,0 146.27,0.03 292.7,-73.08 146.41,-73.03 293.19,-220.09 293.08,-512.26l-7 0c-0.14,289.68 -144.52,433.55 -289.22,505.99 -72.36,36.14 -144.82,54.26 -199.17,63.3 -27.16,4.54 -49.79,6.81 -65.64,7.93 -15.82,1.12 -24.73,1.12 -24.75,1.12l-2213.52 0c-289.65,-0.11 -433.46,-144.38 -505.9,-288.97 -36.15,-72.33 -54.27,-144.74 -63.31,-199.03 -4.51,-27.14 -6.78,-49.76 -7.9,-65.59 -1.15,-15.82 -1.12,-24.72 -1.12,-24.75l0 -1207.74c0.12,-289.82 144.35,-433.71 288.92,-506.2 72.3,-36.18 144.69,-54.3 198.98,-63.34 27.16,-4.54 49.76,-6.78 65.58,-7.93 15.81,-1.12 24.72,-1.12 24.75,-1.12l2213.52 0c289.89,0.11 433.84,144.46 506.34,289.12 36.21,72.32 54.33,144.76 63.37,199.08 4.54,27.16 6.8,49.79 7.92,65.61 1.15,15.82 1.13,24.75 1.15,24.78l0 1207.74 7 0zm-1036.94 -602.44l-1.76 -3 -1100.64 646.72 0 -1286.85 1100.64 646.16 1.76 -3.03 -1.76 -3 1.76 3 1.79 -3.02 -1111.19 -652.35 0 1311.33 1116.32 -655.96 -5.13 -3.02 -1.79 3.02z"/>
 </g>
</svg>
